<svg width="158" height="47" viewBox="0 0 158 47" fill="none" xmlns="http://www.w3.org/2000/svg">
<path d="M2.68571 23.4998C2.68571 34.9952 12.0046 44.3141 23.5 44.3141C34.9954 44.3141 44.3143 34.9952 44.3143 23.4998C44.3143 12.0044 34.9954 2.68555 23.5 2.68555C12.0046 2.68555 2.68571 12.0044 2.68571 23.4998Z" fill="white" stroke="url(#paint0_radial_348_223)" stroke-width="0.5" stroke-miterlimit="10"/>
<path fill-rule="evenodd" clip-rule="evenodd" d="M8.05714 17.476C18.3431 17.4697 28.6291 17.4634 38.915 17.457C38.9243 18.7904 38.9336 20.1237 38.9429 21.4571C28.6476 21.4666 18.3524 21.4761 8.05714 21.4856V17.476Z" fill="black"/>
<path d="M35.0443 30.8855C34.3296 28.8745 33.6148 26.8635 32.9002 24.8525C32.1855 26.8633 31.4708 28.8742 30.7562 30.8851H26.8571C28.2868 26.4091 29.7165 21.9331 31.1462 17.457C32.3156 17.4572 33.485 17.4573 34.6544 17.4575C36.0839 21.9335 37.5134 26.4095 38.9429 30.8856C37.6433 30.8856 36.3438 30.8856 35.0443 30.8855Z" fill="black"/>
<path d="M61.1997 29.335V8.47496H65.0077V19.339L63.9717 18.975L72.8477 8.47496H77.6357L69.3197 18.331L69.5437 15.643L77.8877 29.335H73.4077L67.8077 20.151L65.0077 23.483V29.335H61.1997ZM84.6127 29.671C83.0447 29.671 81.6727 29.3163 80.4967 28.607C79.3207 27.8976 78.406 26.9363 77.7527 25.723C77.0994 24.5096 76.7727 23.1656 76.7727 21.691C76.7727 20.1603 77.0994 18.807 77.7527 17.631C78.4247 16.4363 79.33 15.4936 80.4687 14.803C81.626 14.1123 82.914 13.767 84.3327 13.767C85.5274 13.767 86.5727 13.963 87.4687 14.355C88.3834 14.747 89.158 15.2883 89.7927 15.979C90.4274 16.6696 90.9127 17.463 91.2487 18.359C91.5847 19.2363 91.7527 20.1883 91.7527 21.215C91.7527 21.4763 91.734 21.747 91.6967 22.027C91.678 22.307 91.6314 22.5496 91.5567 22.755H79.7967V19.955H89.4847L87.7487 21.271C87.9167 20.4123 87.87 19.647 87.6087 18.975C87.366 18.303 86.9554 17.771 86.3767 17.379C85.8167 16.987 85.1354 16.791 84.3327 16.791C83.5674 16.791 82.886 16.987 82.2887 17.379C81.6914 17.7523 81.234 18.3123 80.9167 19.059C80.618 19.787 80.506 20.6736 80.5807 21.719C80.506 22.6523 80.6274 23.483 80.9447 24.211C81.2807 24.9203 81.766 25.471 82.4007 25.863C83.054 26.255 83.8007 26.451 84.6407 26.451C85.4807 26.451 86.19 26.2736 86.7687 25.919C87.366 25.5643 87.8327 25.0883 88.1687 24.491L91.1367 25.947C90.838 26.675 90.3714 27.319 89.7367 27.879C89.102 28.439 88.346 28.8776 87.4687 29.195C86.61 29.5123 85.658 29.671 84.6127 29.671ZM94.4212 35.495C94.0106 35.495 93.6092 35.4576 93.2172 35.383C92.8252 35.327 92.4706 35.215 92.1532 35.047V31.995C92.3959 32.051 92.6852 32.107 93.0212 32.163C93.3759 32.219 93.7026 32.247 94.0012 32.247C94.8412 32.247 95.4479 32.051 95.8212 31.659C96.2132 31.2856 96.5586 30.7816 96.8572 30.147L97.8652 27.795L97.8092 30.875L91.1732 14.103H95.1212L99.7692 26.479H98.3692L102.989 14.103H106.965L100.329 30.875C99.9372 31.8456 99.4612 32.6763 98.9012 33.367C98.3412 34.0576 97.6879 34.5803 96.9412 34.935C96.2132 35.3083 95.3732 35.495 94.4212 35.495ZM107.327 29.335V8.47496H121.187V11.835H111.135V17.183H120.627V20.543H111.135V25.975H121.187V29.335H107.327ZM128.796 29.671C127.321 29.671 126.005 29.3256 124.848 28.635C123.69 27.9256 122.776 26.9643 122.104 25.751C121.432 24.5376 121.096 23.1936 121.096 21.719C121.096 20.2256 121.432 18.8816 122.104 17.687C122.776 16.4923 123.69 15.5403 124.848 14.831C126.024 14.1216 127.33 13.767 128.768 13.767C129.925 13.767 130.952 14.0003 131.848 14.467C132.762 14.915 133.481 15.5496 134.004 16.371L133.444 17.127V8.13896H137.112V29.335H133.64V26.395L134.032 27.123C133.509 27.9443 132.781 28.579 131.848 29.027C130.914 29.4563 129.897 29.671 128.796 29.671ZM129.188 26.311C130.028 26.311 130.765 26.115 131.4 25.723C132.034 25.331 132.529 24.7896 132.884 24.099C133.257 23.4083 133.444 22.615 133.444 21.719C133.444 20.8416 133.257 20.0576 132.884 19.367C132.529 18.6576 132.034 18.107 131.4 17.715C130.765 17.323 130.028 17.127 129.188 17.127C128.366 17.127 127.629 17.3323 126.976 17.743C126.322 18.135 125.809 18.6763 125.436 19.367C125.081 20.039 124.904 20.823 124.904 21.719C124.904 22.615 125.081 23.4083 125.436 24.099C125.809 24.7896 126.322 25.331 126.976 25.723C127.629 26.115 128.366 26.311 129.188 26.311Z" fill="white"/>
<path d="M59.1577 44.6655L61.345 39.8355H62.0281L64.2223 44.6655H63.4978L61.5451 40.2219H61.8211L59.8684 44.6655H59.1577ZM60.0892 43.458L60.2755 42.906H62.9941L63.1942 43.458H60.0892ZM65.3568 44.6655V39.8355H65.9226L69.1173 43.803H68.8206V39.8355H69.5106V44.6655H68.9448L65.7501 40.698H66.0468V44.6655H65.3568ZM72.906 44.6655L75.0933 39.8355H75.7764L77.9706 44.6655H77.2461L75.2934 40.2219H75.5694L73.6167 44.6655H72.906ZM73.8375 43.458L74.0238 42.906H76.7424L76.9425 43.458H73.8375ZM79.1051 44.6655V39.8355H80.9888C81.6144 39.8355 82.1066 39.985 82.4654 40.284C82.8242 40.5784 83.0036 40.9901 83.0036 41.5191C83.0036 41.8687 82.9231 42.17 82.7621 42.423C82.6011 42.6714 82.3711 42.8623 82.0721 42.9957C81.7731 43.1291 81.412 43.1958 80.9888 43.1958H79.4846L79.7951 42.8784V44.6655H79.1051ZM82.3343 44.6655L81.1061 42.9129H81.8444L83.0864 44.6655H82.3343ZM79.7951 42.9474L79.4846 42.6093H80.9681C81.4097 42.6093 81.7432 42.515 81.9686 42.3264C82.1986 42.1332 82.3136 41.8641 82.3136 41.5191C82.3136 41.1741 82.1986 40.9073 81.9686 40.7187C81.7432 40.5301 81.4097 40.4358 80.9681 40.4358H79.4846L79.7951 40.0908V42.9474ZM84.5324 44.6655V39.8355H86.5679C87.0831 39.8355 87.5362 39.9367 87.9272 40.1391C88.3228 40.3415 88.6287 40.6244 88.8449 40.9878C89.0657 41.3512 89.1761 41.7721 89.1761 42.2505C89.1761 42.7289 89.0657 43.1498 88.8449 43.5132C88.6287 43.8766 88.3228 44.1595 87.9272 44.3619C87.5362 44.5643 87.0831 44.6655 86.5679 44.6655H84.5324ZM85.2224 44.0652H86.5265C86.9267 44.0652 87.2717 43.9893 87.5615 43.8375C87.8559 43.6857 88.0836 43.4741 88.2446 43.2027C88.4056 42.9267 88.4861 42.6093 88.4861 42.2505C88.4861 41.8871 88.4056 41.5697 88.2446 41.2983C88.0836 41.0269 87.8559 40.8153 87.5615 40.6635C87.2717 40.5117 86.9267 40.4358 86.5265 40.4358H85.2224V44.0652ZM90.647 44.6655V39.8355H94.0556V40.4358H91.337V44.0652H94.1522V44.6655H90.647ZM91.2749 42.5058V41.9193H93.7589V42.5058H91.2749ZM95.6834 44.6655V39.8355H99.092V40.4358H96.3734V44.0652H99.1886V44.6655H95.6834ZM96.3113 42.5058V41.9193H98.7953V42.5058H96.3113ZM104.381 44.6655L102.256 39.8355H103.001L104.953 44.2929H104.526L106.492 39.8355H107.182L105.064 44.6655H104.381ZM108.212 44.6655V39.8355H111.621V40.4358H108.902V44.0652H111.717V44.6655H108.212ZM108.84 42.5058V41.9193H111.324V42.5058H108.84ZM113.249 44.6655V39.8355H113.814L117.009 43.803H116.712V39.8355H117.402V44.6655H116.837L113.642 40.698H113.939V44.6655H113.249ZM120.221 44.6655V40.4358H118.565V39.8355H122.56V40.4358H120.904V44.6655H120.221ZM125.639 44.7207C125.004 44.7207 124.505 44.539 124.142 44.1756C123.778 43.8122 123.597 43.2809 123.597 42.5817V39.8355H124.287V42.5541C124.287 43.0923 124.404 43.4856 124.639 43.734C124.878 43.9824 125.214 44.1066 125.646 44.1066C126.083 44.1066 126.419 43.9824 126.653 43.734C126.893 43.4856 127.012 43.0923 127.012 42.5541V39.8355H127.682V42.5817C127.682 43.2809 127.5 43.8122 127.136 44.1756C126.778 44.539 126.279 44.7207 125.639 44.7207ZM129.51 44.6655V39.8355H131.394C132.019 39.8355 132.512 39.985 132.87 40.284C133.229 40.5784 133.409 40.9901 133.409 41.5191C133.409 41.8687 133.328 42.17 133.167 42.423C133.006 42.6714 132.776 42.8623 132.477 42.9957C132.178 43.1291 131.817 43.1958 131.394 43.1958H129.89L130.2 42.8784V44.6655H129.51ZM132.739 44.6655L131.511 42.9129H132.249L133.491 44.6655H132.739ZM130.2 42.9474L129.89 42.6093H131.373C131.815 42.6093 132.148 42.515 132.374 42.3264C132.604 42.1332 132.719 41.8641 132.719 41.5191C132.719 41.1741 132.604 40.9073 132.374 40.7187C132.148 40.5301 131.815 40.4358 131.373 40.4358H129.89L130.2 40.0908V42.9474ZM134.937 44.6655V39.8355H138.346V40.4358H135.627V44.0652H138.443V44.6655H134.937ZM135.565 42.5058V41.9193H138.049V42.5058H135.565Z" fill="white"/>
<defs>
<radialGradient id="paint0_radial_348_223" cx="0" cy="0" r="1" gradientUnits="userSpaceOnUse" gradientTransform="translate(23.5017 23.4969) rotate(28.919) scale(20.8208 11.6596)">
<stop stop-color="#2E3192"/>
<stop offset="0.188" stop-color="#27297C"/>
<stop offset="0.579" stop-color="#151643"/>
<stop offset="1"/>
</radialGradient>
</defs>
</svg>
